<svg version="1" xmlns="http://www.w3.org/2000/svg" width="113.333" height="113.333" viewBox="0 0 85.000000 85.000000"><path d="M31.9 10.9c-5.6 1.8-12.2 6-14.7 9.3-.7.9-1.8 2.3-2.5 3-2.5 2.5-6 11.1-6.1 14.9-.1 2.2-.4 3.9-.7 3.9-.8 0-.2 5.2 1.1 9.8.5 1.9.7 3.9.4 4.4-.3.4 0 .8.5.8.6 0 1.1.7 1.1 1.5s.5 1.5 1.2 1.5c.6 0 .9.3.5.6-.7.7.4 2.1 5.8 7.8 12.7 13.1 35.2 12.9 48.4-.3 6.2-6.2 9.5-14.1 9.8-23.3.1-4.3-.2-8-.8-8.3-.5-.4-.7-1-.4-1.5.9-1.5-3.3-9.8-7.3-14.2-4.9-5.4-10-8.5-16.9-10.3-7.4-1.9-12.5-1.8-19.4.4z"/></svg>