<svg version="1" xmlns="http://www.w3.org/2000/svg" width="346.667" height="346.667" viewBox="0 0 260.000000 260.000000"><path d="M107.9 7.5C81.8 12.4 58.7 25 40.2 44.3 23.9 61.4 13.5 81.2 8.4 105c-2.3 10.6-2.6 36.1-.5 46.5 2.1 11.1 6.7 24.3 11.6 33.9 30.8 60.5 104.8 84.9 165.4 54.6 52.3-26.2 79-84.7 64.6-141.4-9.4-37.4-36.5-68.6-72.6-83.7-14.7-6.1-24.6-8-43.9-8.5-12.4-.2-19.7.1-25.1 1.1zm29 14.3c1.7 4.8 3.1 9.1 3.1 9.5 0 1.5-2.8.6-5.4-1.8-3.3-3-6.2-3.2-6.9-.5-.3 1.3-1.4 2-3 2-1.4 0-3.2.3-4.1.6-.9.4-3.3-1.1-6.4-4l-4.9-4.6.8 4.6c.5 2.6.7 4.9.5 5.2-.3.2-2.3.8-4.7 1.3-3.6.8-4.5.7-6.4-1.1-3.1-2.9-4.7-2.6-3.4.7.7 2 .6 2.8-.3 3.5-2.6 1.6-3.5.7-5.7-6.5-1.3-3.9-2.6-7.7-2.8-8.3-.5-1.4 4.8-3.4 8.8-3.4 3.7 0 6.5 3.9 5 6.8-.8 1.5-.6 2.3.7 3.4 4.2 3.6 4.5 3.4 3.8-2.2-.4-2.9-1-6.5-1.2-8-1-4.8 2.1-4.5 7.7.7 4.7 4.4 5 4.5 4.5 2-1.7-8.1-1.8-7.7.9-7.7 1.7 0 2.5.6 2.5 1.7 0 .9.5 4.6 1.1 8.1l1.2 6.6 3.4-8.7c3-7.3 3.9-8.7 5.8-8.7s2.7 1.3 5.4 8.8zm16.4-6.1c.4.2.7 1.3.7 2.4 0 1.5-.5 1.8-2.4 1.3-2.7-.7-3.1 0-4.1 8.3-.7 5.2-1.6 6.1-4.3 4.4-1.1-.6-1.1-2-.3-6.6 1.4-7.6 1.4-7.5-.7-7.5-2.4 0-3.2-.8-2.5-2.7.5-1.2 1.8-1.3 6.7-.8 3.3.4 6.4.9 6.9 1.2zm7.7 2.5c0 1.8-3.7 15.9-4.3 16.5-1 .9-4.8-.9-4.4-2 .2-.7 1.3-4.5 2.3-8.5 1.6-6.3 2.1-7.2 4.1-7.2 1.3 0 2.3.6 2.3 1.2zm14.9 5.4c5.3 4.5 4 12.3-2.6 15-3.1 1.4-3.8 1.3-7.1-.3-4.9-2.4-6.7-6.2-5.2-10.8 2.2-6.8 9.3-8.6 14.9-3.9zm-91.1 1.6c.2 1-.8 2-2.7 2.6-2.2.8-2.9 1.5-2.5 2.7.4.9 1.3 1.4 2 1.1.8-.3 2-.9 2.8-1.2 2.5-1 2.7 2.5.1 3.8-1.7.9-2.2 1.7-1.6 2.7.7 1 1.3 1 2.9.2 2.9-1.5 5.2-1.4 5.2.4 0 .8-2.2 2.6-5 4L81 44l-4-8-4-8 4.7-2.4c5.2-2.7 6.6-2.8 7.1-.4zm103 4c.7.7 1.2 3.6 1.2 6.5s.4 5.3.8 5.3c.5 0 1.7-1.6 2.8-3.5 1-1.9 2.4-3.5 3.2-3.5 2.2 0 2.5 2.8.5 5.7-1.1 1.5-3 4.5-4.3 6.6l-2.3 3.9L198 46c6.7-3.4 8.4-3.9 9.7-2.9 1.7 1.5 1.5 3.1-2.1 12.3-2.9 7.5-3.2 7.5 5.7.2 2.6-2.2 4.8-3.7 5-3.5.1.2.8 1.1 1.4 1.9 1 1.3.3 2.3-4.3 6l-5.4 4.3 2.1 2.3c2.1 2.3 1.9 4.4-.5 4.4-2.2 0-10.6-11.4-10-13.6.7-2.8-3-6.1-5-4.5-1.2 1-2.2.8-5-1.4-3-2.3-3.5-3.4-4.3-8.8l-.8-6.2-2.6 4.2c-2.3 3.8-2.7 4.1-4.3 3-1.7-1.2-1.5-1.8 2.8-8.5 4.8-7.5 5.4-8 7.4-6zM71.5 31.1c.4.5-.1 1.9-1 2.9-1.5 1.7-1.4 2.1 2.1 7.5 3.1 4.6 3.5 5.8 2.3 6.6-2.3 1.4-2.7 1.2-6.5-4.6-3.6-5.4-3.8-5.5-6.1-4-1.2.9-2.3 1.3-2.3 1.1 0-.2-.3-1.1-.6-1.9-.4-1.1 1.1-2.7 4.8-5.1 5.7-3.9 6.4-4.1 7.3-2.5zm76.7 7.4c46.6 9.8 78.9 53.8 73.7 100.4-4.3 38.4-31.6 70.1-68.9 80.3-7.2 1.9-10.8 2.3-24 2.2-13.9-.1-16.4-.3-24.5-2.8-26.5-8-47.7-26.3-59.2-51.3-4.9-10.7-7.4-21.1-8-34.3-1.1-24.5 7.4-47.7 24.1-65.7 14.5-15.5 30-24.5 49.6-28.7 8.9-2 28.1-2 37.2-.1zm-85.9 8.1c4.8 5.2 5.5 6.3 4.2 7.4-1.3 1.1-6.4.8-12-.7-1.6-.4-1.2.3 1.4 3 2.1 2.2 3.1 4.2 2.8 5.1-.4.9-1 1.6-1.4 1.6-.5 0-3.7-2.8-7.1-6.3-5.4-5.5-6.1-6.5-4.8-7.6 1.1-.9 3-1 7.5-.3l6 .9-3-3.5c-2.4-2.7-2.8-3.7-1.8-4.8 1.6-1.9 1.7-1.9 8.2 5.2zM48.4 59.2c3.3 2.9 6.2 5.3 6.4 5.4.2.1-.2 1.1-.9 2.2-1.2 2-1.5 1.9-7.1-2.5-7.7-6.1-8.4-6.9-6.8-8.8.7-.8 1.5-1.5 1.7-1.5.3 0 3.3 2.3 6.7 5.2zM222.3 188c3.9 3.1 4.4 7.2 1.3 12.5-1.5 2.4-3.1 4.7-3.6 5-.6.3-3.6-1.4-6.7-3.8-3.2-2.4-6.5-4.7-7.3-5.2-1.3-.8-1.3-.7-.1.8s1 2-1.3 3.8c-2.1 1.7-2.4 2.4-1.5 3.5 1 1.3 1.4 1.2 3-.2 1.2-1.1 2.3-1.3 3.4-.7 1.4.8 1.4 1.1-.5 2.8-1.5 1.4-1.7 2.1-.8 3.2.9 1.1 1.6.9 3.8-1.2 2.3-2.2 2.9-2.4 3.9-1.1 1 1.2.4 2.2-3.1 5.5l-4.3 4-6.2-6.1-6.2-6.2 5.7-6.1c3.1-3.4 7-7.6 8.5-9.3 3.4-3.8 8.1-4.3 12-1.2zm-170.6 4.2c2.9 2.7 3.1 6.8.3 6.8-1.3 0-2-.7-2-1.9 0-1-.7-2.2-1.6-2.5-1.3-.5-1.4.1-.8 3.9.8 5.4-.6 7.5-4.7 7.5-3.6 0-6.9-3.2-6.9-6.5 0-1.8.5-2.5 2-2.5 1.3 0 2 .7 2 1.9 0 2.2 1.5 3.5 2.9 2.7.5-.4.5-2-.2-4.1-.9-2.9-.7-3.8.8-5.5 2.4-2.6 5.3-2.5 8.2.2zm13.2 13.5c.2.2-.2 1-.9 1.8-1.2 1.4-1.6 1.3-4-1-2.2-2.1-2.9-2.3-3.8-1.2-.9 1.1-.8 1.8.8 3.2 1.5 1.4 1.7 2.1.8 3.2-.9 1.1-1.5 1-3.3-.7-1.8-1.7-2.4-1.8-3.3-.7-.9 1.1-.6 1.9 1.3 3.7 1.9 1.8 2.2 2.6 1.3 3.7-.9 1.2-1.9.6-5.5-2.9l-4.3-4.2 6.2-6.3 6.2-6.3 4 3.8c2.3 2 4.3 3.8 4.5 3.9zm131.5 3.4c-1.6 1.8-1.5 2.1 1.2 5.9 1.6 2.3 3.3 4.7 3.9 5.5.7 1 .5 1.9-.7 3.1-1.5 1.5-1.9 1.2-5.8-4-4.5-6-5-6.2-6.8-4.4-.8.8-1.5.8-2.8-.3-2.1-1.6-2.2-1.8 3.7 7.6 2.8 4.4 3.5 6.2 2.7 7.2-.6.7-1.6 1.3-2.2 1.3-1.1-.1-9.6-13.2-9.6-15 0-.5.9-1.1 1.9-1.5 1.1-.3 4.6-2.6 7.7-5 4.5-3.5 6-4.2 7.1-3.3 1.1.9 1.1 1.4-.3 2.9zm-126.1 1c2 1.7 3.7 3.9 3.7 5 0 3.2-1.9 5.9-4 5.9-1.7 0-2 .7-2 3.9 0 2.2-.4 4.2-.9 4.5-1.5 1-4.3-3.1-4.1-6.1.3-4.4.1-4.6-2.2-1.9-2 2.2-2.5 2.4-4 1.3-1.6-1.2-1.3-2 3.4-8.5 2.8-4 5.4-7.2 5.7-7.2.4 0 2.3 1.4 4.4 3.1zm8.9 9c-.1 1.3-.5 3.9-.8 5.8l-.5 3.4 4.6-4.1 4.6-4.1 3.7 1.6c2 .8 4 1.7 4.4 1.9.5.3-4.6 15.2-5.7 16.2-.2.2-1.3.1-2.5-.3-1.5-.5-1.9-1.2-1.5-2.3.4-1 1.8-4.6 3.1-8.2l2.5-6.5-3.3 3c-1.8 1.6-4.9 4.5-6.9 6.3-3.2 3-4 3.2-5.9 2.2-1.6-.9-2-1.8-1.6-3.8.3-1.5.8-5.8 1.1-9.5.7-6.7.7-6.8 2.8-5.4 1.4.9 2.1 2.3 1.9 3.8zm102.7 6.4c1.7 4.2 2.9 8 2.6 8.5-1.3 2.1-3.2.8-5.2-3.3l-2.2-4.2v4.6c-.1 5.9-1.8 6.6-6.5 2.7l-3.6-3 1 2.7c.5 1.4 1.5 3.5 2 4.5.8 1.5.6 2.1-1 3-1.8 1-2.2.6-4.1-3.7-5.1-11.8-5-11.6-3.7-12.5 2.3-1.4 3.7-.9 7.7 2.7l3.9 3.6.8-5.8c.6-5.6 1.6-7.3 4-7.3.6 0 2.5 3.4 4.3 7.5zm-21.4 8.7c1.3 4.5 2.3 8.3 2.2 8.4-.1.1-1.2.4-2.3.8-2 .6-2.4 0-4.3-7.2-1.1-4.3-2.1-8.3-2.1-8.9 0-1 3-2.3 3.9-1.7.1.2 1.4 4 2.6 8.6zm-52-6.1c1.7 1.4 2.9 1.8 3.3 1.2.4-.6 2.9-.9 6-.6 4.2.5 5.2.9 5.2 2.4s-.7 1.9-3.5 1.9c-2.4 0-3.5.5-3.5 1.5 0 .9.9 1.5 2.5 1.5 1.9 0 2.5.5 2.5 2.1 0 1.8-.5 2.1-3 1.7-2.4-.4-3-.1-3 1.3 0 1.3.9 1.9 3.2 2.1 2.2.2 3.4.9 3.6 2 .4 2-2.7 2.4-8.8 1.2l-3.2-.7.6-7.3c.6-6.9.6-7.2-1.4-6.7-1.1.3-2.7 0-3.5-.7-2-1.7-5.4-.3-6.1 2.5-1.1 4.4-.1 6 3.8 6.3 4.5.4 5.8 2.9 2.2 4.2-3.1 1.2-8.7-.9-10.3-3.8-2-3.8-1.3-8.2 1.8-11.3 3.6-3.5 7.7-3.8 11.6-.8zm39 4.6c1.2 8.8 1.4 9.1 4.8 8.9 2.2-.1 3.2.4 3.5 1.5.2 1.3-.8 1.8-4.8 2.4-2.8.4-5.4.5-5.7.2-.3-.3-1.2-4.1-2-8.3-1.2-6.3-1.2-7.8-.1-8.5 2.6-1.7 3.6-.8 4.3 3.8zm-14.1-2.7c3.7 1.4 2.4 4.4-1.5 3.6-4.2-.8-4.5 1.1-.4 2.8 4 1.7 5 3.5 4.1 7.1-1.1 4.3-6.9 5.6-11.5 2.6-2.3-1.5.5-4.4 2.9-3.1 2.6 1.4 4 1.2 4-.3 0-.7-1.5-2-3.2-2.8-4.3-1.8-5.1-6.8-1.6-9.3 2.6-1.9 3.7-2 7.2-.6z"/><path d="M130.7 20.4c-1.1 2.7-.8 3.6.8 3.6s1.7-.5.6-3.4c-.7-1.8-.8-1.8-1.4-.2zM93 23.7c0 1.7 1.9 3.5 2.9 2.9 1.8-1.2 1.2-3.6-.9-3.6-1.1 0-2 .3-2 .7zM166.6 27.2c-2.8 4-1.4 7.8 2.9 7.8 2.8 0 4.5-1.9 4.5-5 0-5-4.7-6.8-7.4-2.8zM201.1 49.4c-1.9 1.1-2.1 1.4-.7 1.9 1 .4 2-.1 2.6-1.3 1.2-2.3 1.2-2.3-1.9-.6zM68.5 109.9c-4.5 1.1-7.3 3.2-9 6.7-2 4.2-2 4.1 1.6 4.9 2.8.6 3.5.3 5.6-2.4 3-3.9 6.6-4.1 8.9-.6 2.3 3.5.7 7.1-3.5 8-2.4.5-3.1 1.2-3.1 3.1 0 1.6.6 2.4 1.8 2.4 5.3 0 8.2 6.8 4.4 10.3-2.8 2.5-6.1 2-9.2-1.3-2.3-2.4-3.4-2.9-5.4-2.4-1.5.3-2.9 1-3.2 1.5-1 1.6 3.5 7.6 6.7 8.9 7 2.9 16.9.4 19.6-5.1 2.3-4.4 1.6-9.8-1.6-12.8l-2.8-2.6 2.3-1.8c3.7-2.8 3.4-9.9-.5-13.8-1.6-1.6-3.8-2.9-4.9-2.9-1.1 0-2.6-.2-3.4-.4-.7-.2-2.6-.1-4.3.3zM102 112.2c-.5 1.3-4.1 10.3-7.9 20.1l-6.9 17.8 4.6-.3c4.5-.3 4.8-.4 6.2-4.6l1.4-4.2h16.2l1.4 4.2c1.4 4.1 1.7 4.3 5.9 4.6 5.3.4 5.6 1.9-3.8-21.8l-6.8-17.5-4.7-.3c-4-.3-4.7 0-5.6 2zm10.6 20.3c.6 2.5.5 2.5-5 2.5-3.1 0-5.6-.3-5.6-.7 0-.5 1.2-4.4 2.7-8.8l2.6-8 2.3 6.2c1.3 3.4 2.6 7.4 3 8.8zM132 130v20h9.3c5 0 11-.5 13.2-1.1 7.4-2.1 13.5-10.6 13.5-18.9 0-8.3-6.1-16.8-13.5-18.9-2.2-.6-8.2-1.1-13.2-1.1H132v20zm23-10.2c5.2 5.2 5.2 15.2 0 20.4-2.5 2.5-3.6 2.8-8.9 2.8H140v-26h6.1c5.3 0 6.4.3 8.9 2.8zM169.9 114.7c1.1 2.6 4.7 11.5 8 19.8l6 15 4.3.3 4.3.2 7.2-18.2c4-10.1 7.5-19.1 7.9-20.1.6-1.6.1-1.8-4.1-1.5l-4.8.3-5.2 15c-2.9 8.2-5.5 14.3-5.8 13.5-.3-.8-2.7-7.6-5.4-15l-4.8-13.5-4.8-.3-4.7-.3 1.9 4.8zM213 191.8l-2.3 1.8 4.2 3.3c2.3 1.9 4.3 3.2 4.5 3 .2-.2.9-1.4 1.5-2.7 1-1.9.8-2.6-1.3-4.7-3-3-3.7-3.1-6.6-.7zM66.2 214.2c-1.7 1.7-1.5 2.8.6 2.8 2.4 0 3.2-.8 2.5-2.6-.6-1.7-1.5-1.8-3.1-.2z"/></svg>